<svg width="43" height="46" viewBox="0 0 43 46" fill="none" xmlns="http://www.w3.org/2000/svg">
<path d="M33.7046 2.6385C28.9181 1.39103 16.5034 -0.00613676 8.42627 5.28313C8.77528 4.98374 9.22401 4.63445 9.57302 4.38496C10.9691 3.38698 12.1158 2.7882 12.6144 2.5387C12.6642 2.5387 12.7141 2.4888 12.7141 2.4888C12.764 2.4389 12.8637 2.4389 12.9135 2.389C13.0631 2.28921 13.2626 2.23931 13.4121 2.13951C13.5118 2.08961 13.5617 2.08961 13.6614 2.03971C13.811 1.98981 13.9107 1.93992 14.0603 1.89002C14.1101 1.89002 14.16 1.84012 14.2099 1.84012C14.3096 1.79022 14.3594 1.79022 14.4592 1.74032C14.5589 1.69042 14.6586 1.69042 14.7583 1.64052C14.9577 1.59062 15.1073 1.49083 15.3068 1.44093C15.3566 1.44093 15.4563 1.39103 15.5062 1.39103C15.6059 1.34113 15.7056 1.29123 15.8552 1.29123C15.9549 1.24133 16.0546 1.24133 16.1544 1.19143C16.2042 1.19143 16.3039 1.14154 16.3538 1.14154C16.6031 1.09164 16.8025 0.991839 17.0518 0.94194C17.1515 0.94194 17.2014 0.892042 17.3011 0.892042C17.351 0.892042 17.4008 0.842143 17.4507 0.842143C17.5005 0.842143 17.5005 0.842143 17.5504 0.842143C17.7 0.792244 17.8495 0.792244 17.9991 0.742345C18.0988 0.742345 18.1487 0.692446 18.2484 0.692446C18.5974 0.592649 18.8966 0.54275 19.2456 0.492851C19.794 0.393054 20.492 0.293256 20.9906 0.293256H21.0904C21.6887 0.093661 22.1374 0.0437622 22.636 0.0437622H22.8853C23.0348 0.0437622 23.1844 0.0437622 23.334 0.0437622C23.4337 0.0437622 23.5334 0.0437622 23.683 0.0437622C24.032 0.0437622 24.381 0.0437622 24.6303 0.093661C24.7799 0.093661 25.4779 0.14356 26.3754 0.293256H26.4252C26.9737 0.393054 27.6218 0.492851 28.2201 0.642548C28.7187 0.742345 29.2173 0.892042 29.6162 0.991839L29.7159 1.04174C29.7657 1.04174 29.8156 1.04174 29.8156 1.09164C30.8626 1.44093 31.7102 1.74032 32.2587 1.98981C32.6575 2.18941 33.0066 2.33911 33.3057 2.4888C33.5051 2.5387 33.6049 2.5886 33.7046 2.6385Z" fill="white"/>
<path d="M2.94164 15.9616C3.34051 17.0594 4.03853 18.0574 4.88613 19.0553C3.78924 20.0034 2.89179 21.0513 2.19377 22.1491C1.59546 20.5523 1.04702 17.8079 1.5456 15.1632C1.7949 14.6642 2.14391 14.2152 2.49292 13.7162C2.49292 14.4647 2.64249 15.2131 2.94164 15.9616Z" fill="white"/>
<path d="M25.2781 9.97359C21.5387 11.0714 17.6996 12.2689 14.2593 13.6661C11.2678 12.2689 8.72504 10.772 7.87744 9.12531C8.5256 8.72612 9.22362 8.37683 10.0214 8.02754C16.6027 4.93382 26.6741 4.03564 32.1087 3.53665C33.7042 3.38695 34.4022 3.33705 34.7512 3.28716L34.8011 3.33705H34.9008H34.9506H35.0005C35.3994 3.58655 35.7484 3.78614 36.0974 4.03564C37.3937 6.28108 32.7569 7.82794 25.2781 9.97359Z" fill="white"/>
<path d="M7.22925 39.8631C7.02981 39.7134 6.88024 39.5138 6.6808 39.3142C6.43151 39.0148 6.13236 38.7154 5.83321 38.3661L5.4842 38.0667C5.18505 37.6675 4.78618 37.2185 4.48703 36.8193C4.48703 36.7694 4.43717 36.7694 4.43717 36.7195C4.33745 36.5698 4.18787 36.3702 4.0383 36.2205C3.73915 35.6716 3.53971 35.1726 3.39014 34.6736C4.33745 35.6217 5.43434 36.47 6.78052 37.2684C6.53123 38.0667 6.63095 38.9649 7.22925 39.8631Z" fill="white"/>
<path d="M10.7694 23.4962C14.1099 25.3924 18.0986 27.0889 22.0873 28.6358C21.7881 28.7356 21.5388 28.8354 21.2397 28.9352C18.8963 29.7835 16.4034 30.6816 14.1598 31.6796C10.9688 30.3324 8.12688 28.7855 5.93311 26.9392C7.17957 25.6918 8.87476 24.5441 10.7694 23.4962Z" fill="white"/>
<path d="M35.0009 22.7478C31.4609 20.6021 27.4224 18.9056 24.2314 17.6082C24.5306 17.5084 24.8796 17.3587 25.1788 17.2589C32.6077 14.5145 42.4797 10.822 37.7431 5.28322C37.9924 5.48281 38.2417 5.68241 38.4412 5.882C38.491 5.9319 38.5907 6.0317 38.6905 6.0816C38.7403 6.1315 38.7403 6.1315 38.7902 6.1814L38.84 6.2313C39.9369 7.22927 40.4355 7.87796 40.6848 8.12745C41.0338 8.52664 41.3828 8.97573 41.7318 9.47472L41.7817 9.52462C41.7817 9.52462 41.8315 9.57452 41.8315 9.62441C41.8814 9.67431 41.8814 9.72421 41.9313 9.77411C42.031 9.92381 42.1307 10.0735 42.2304 10.1733C44.4741 15.3129 40.4355 19.5044 35.0009 22.7478Z" fill="white"/>
<path d="M8.17676 40.7613C8.52577 41.0607 8.9745 41.41 9.32351 41.6595C10.7195 42.7073 11.8663 43.3061 12.3649 43.5556C12.4147 43.5556 12.4646 43.6055 12.4646 43.6055C12.5145 43.6554 12.6142 43.6554 12.664 43.7053C12.8136 43.8051 13.013 43.855 13.1626 43.9548C13.2623 44.0047 13.3122 44.0546 13.4119 44.0546C13.5615 44.1045 13.6612 44.1544 13.8108 44.2542C13.8606 44.2542 13.9105 44.3041 13.9604 44.3041C14.0601 44.354 14.1099 44.354 14.2096 44.4039C14.3094 44.4538 14.4091 44.5037 14.5088 44.5037C14.7082 44.5536 14.8578 44.6534 15.0572 44.7033C15.1071 44.7033 15.2068 44.7532 15.2567 44.7532C15.3564 44.8031 15.4561 44.853 15.6057 44.853C15.7054 44.9029 15.8051 44.9029 15.9048 44.9528C15.9547 44.9528 16.0544 45.0027 16.1043 45.0027C16.3536 45.0526 16.553 45.1524 16.8023 45.2023C16.902 45.2522 16.9519 45.2522 17.0516 45.2522C17.1014 45.2522 17.1513 45.3021 17.2012 45.3021C17.251 45.3021 17.251 45.3021 17.3009 45.3021C17.4505 45.352 17.6 45.352 17.7496 45.4019C17.8493 45.4019 17.8992 45.4518 17.9989 45.4518C18.3479 45.5516 18.6471 45.6015 18.9961 45.6514C19.4947 45.7512 20.2425 45.851 20.7411 45.9009H20.8408C21.2896 45.9508 21.7383 45.9508 22.2369 46.0007H22.4862C22.6358 46.0007 22.7853 46.0007 22.9349 46.0007C23.0346 46.0007 23.1343 46.0007 23.2839 46.0007C23.6329 46.0007 23.9819 46.0007 24.2312 46.0007C24.3808 46.0007 25.0788 45.9508 25.9763 45.851H26.0261C26.5746 45.7512 27.2227 45.6514 27.821 45.5516C28.3196 45.4518 28.8182 45.3021 29.2171 45.2023L29.3168 45.1524C29.3667 45.1524 29.4165 45.1524 29.4165 45.1025C30.4636 44.8031 31.3111 44.4538 31.8596 44.2043C32.2585 44.0047 32.6075 43.855 32.9066 43.7053C33.0063 43.6554 33.1061 43.6055 33.2058 43.5556C28.6188 44.9029 16.204 46.1503 8.17676 40.7613Z" fill="white"/>
<path d="M25.1287 36.2704C12.3649 32.4282 -0.69802 27.4383 0.847596 16.9097C0.797737 17.0593 0.747879 17.2589 0.69802 17.4585C0.69802 17.5084 0.648162 17.5583 0.648162 17.6082C0.648162 17.6581 0.598303 17.708 0.598303 17.7579C0.548445 18.0074 0.448727 18.3567 0.398869 18.7559C0.398869 18.8557 0.34901 19.0054 0.34901 19.1551C0.249293 19.6541 0.149576 20.2529 0.0997172 20.9016C0.0997172 20.9515 0.0997172 20.9515 0.0997172 21.0014C0.0997172 21.1012 0.0997172 21.201 0.0498586 21.2508C0.0498586 21.4504 0 21.6999 0 21.9993C0 22.1989 0 22.3985 0 22.648C0 22.648 0 22.648 0 22.6979C0 23.1969 0 23.7957 0.0498586 24.4444C0.0498586 24.6939 0.0997172 25.1929 0.199434 25.8914C0.249293 26.4902 0.398869 27.1888 0.548444 27.9872C0.648162 28.3864 0.797737 29.085 1.09689 30.033C2.39321 32.7775 4.78642 35.472 9.82214 37.967C16.3536 41.1605 26.4251 42.2083 31.8596 42.7572C33.4551 42.9069 34.1531 43.0067 34.5021 43.0566L34.552 43.0067L34.6019 42.9568H34.6517H34.7016C35.1004 42.7073 35.4495 42.5077 35.7985 42.3081C37.1945 40.1625 32.5078 38.5158 25.1287 36.2704Z" fill="white"/>
<path d="M21.2896 17.3087C13.6113 14.4146 4.38749 10.8718 7.42886 6.1813C7.22943 6.331 7.07985 6.5306 6.88042 6.73019C6.58126 6.97968 6.28211 7.32898 5.98296 7.67827L5.68381 8.02756C5.38466 8.37685 4.98579 8.87584 4.68664 9.27503C4.63678 9.32493 4.63678 9.32493 4.58692 9.37483C4.4872 9.52452 4.33763 9.72412 4.18805 9.87381C-0.648231 19.0053 13.4618 24.4942 25.0788 28.985C32.4579 31.8293 42.3299 35.6715 37.4936 41.1104C37.7429 40.9108 37.9922 40.7112 38.1916 40.5117C38.2415 40.4618 38.3412 40.3619 38.4409 40.3121C38.4908 40.2622 38.4908 40.2622 38.5406 40.2123L38.5905 40.1624C39.7372 39.1644 40.2358 38.5656 40.4352 38.2662C40.7843 37.867 41.1333 37.4179 41.4823 36.9688L41.5321 36.9189C41.5321 36.869 41.582 36.869 41.582 36.8191C41.6319 36.7692 41.6319 36.7193 41.6817 36.6694C41.7814 36.5198 41.8811 36.3701 41.9809 36.2703C46.4183 26.8893 28.8182 20.2029 21.2896 17.3087Z" fill="white"/>
</svg>
